<?xml version="1.0" encoding="UTF-8"?>
<svg width="60px" height="60px" viewBox="0 0 60 60" version="1.1" xmlns="http://www.w3.org/2000/svg" xmlns:xlink="http://www.w3.org/1999/xlink">
    <!-- Generator: Sketch 48.2 (47327) - http://www.bohemiancoding.com/sketch -->
    <title>icon-active</title>
    <desc>Created with Sketch.</desc>
    <defs></defs>
    <g id="SAN-PHAM" stroke="none" stroke-width="1" fill="none" fill-rule="evenodd" transform="translate(-699.000000, -177.000000)">
        <g id="Group-Copy-7" transform="translate(669.000000, 135.000000)" fill="#5DB100" fill-rule="nonzero">
            <g id="icon-active" transform="translate(30.000000, 42.000000)">
                <path d="M30,0 C13.4584615,0 0,13.4573077 0,30 C0,46.5426923 13.4584615,60 30,60 C46.5415385,60 60,46.5426923 60,30 C60,13.4573077 46.5415385,0 30,0 Z M30,57.6923077 C14.7311538,57.6923077 2.30769231,45.2688462 2.30769231,30 C2.30769231,14.7311538 14.7311538,2.30769231 30,2.30769231 C45.2688462,2.30769231 57.6923077,14.7311538 57.6923077,30 C57.6923077,45.2688462 45.2688462,57.6923077 30,57.6923077 Z" id="Shape"></path>
                <path d="M44.1369231,17.6953846 L26.4034615,37.6453846 L15.72,29.0988462 C15.2238462,28.7007692 14.4957692,28.7826923 14.0988462,29.2788462 C13.7007692,29.7773077 13.7815385,30.5030769 14.2788462,30.9011538 L25.8173077,40.1319231 C26.0296154,40.3015385 26.2846154,40.3846154 26.5384615,40.3846154 C26.8569231,40.3846154 27.1742308,40.2530769 27.4015385,39.9969231 L45.8630769,19.2276923 C46.2865385,18.7523077 46.2438462,18.0219231 45.7673077,17.5996154 C45.2896154,17.175 44.5615385,17.2176923 44.1369231,17.6953846 Z" id="Shape"></path>
            </g>
        </g>
    </g>
</svg>