<?xml version="1.0" encoding="UTF-8"?>
<svg width="46px" height="46px" viewBox="0 0 46 46" version="1.1" xmlns="http://www.w3.org/2000/svg" xmlns:xlink="http://www.w3.org/1999/xlink">
    <!-- Generator: Sketch 46.2 (44496) - http://www.bohemiancoding.com/sketch -->
    <title>icon-feature-login</title>
    <desc>Created with Sketch.</desc>
    <defs></defs>
    <g id="Page-1" stroke="none" stroke-width="1" fill="none" fill-rule="evenodd">
        <g id="HOME" transform="translate(-310.000000, -1452.000000)" fill-rule="nonzero" fill="#0086F3">
            <g id="FEATURES" transform="translate(310.000000, 1093.000000)">
                <g id="Group-6-Copy" transform="translate(0.000000, 359.000000)">
                    <g id="icon-feature-login">
                        <path d="M19.9506286,29.9292223 C19.5414137,30.3384919 19.5414137,31.0009079 19.9506286,31.4090831 C20.3598983,31.818298 21.0223142,31.818298 21.4304894,31.4090831 L28.6507413,24.1877915 C28.8684822,23.9700506 28.9616199,23.6801855 28.9468995,23.3954643 C28.9616199,23.109758 28.8684275,22.8209326 28.6507413,22.6032465 L21.4304894,15.3829946 C21.0223142,14.9737797 20.3588038,14.9737797 19.9506286,15.3829946 C19.5414137,15.7922095 19.5414137,16.4546802 19.9506286,16.8628007 L25.437764,22.349936 L2.8465615,22.349936 C2.26885598,22.3499907 1.79999353,22.8188532 1.79999353,23.3965587 C1.79999353,23.9742642 2.26885598,24.4431267 2.8465615,24.4431267 L25.437764,24.4431267 L19.9506286,29.9292223 Z M38.1038966,8.74460716 L17.1725373,8.74460716 C14.8606755,8.74460716 12.9862654,10.6190172 12.9862654,12.930879 L12.9862654,17.1171509 L15.0794013,17.1171509 L15.0794013,12.930879 C15.0794013,11.775468 16.0160865,10.8377431 17.1725373,10.8377431 L38.1038966,10.8377431 C39.2603474,10.8377431 40.1970326,11.775468 40.1970326,12.930879 L40.1970326,33.8622384 C40.1970326,35.0176494 39.2603474,35.9553743 38.1038966,35.9553743 L17.1725373,35.9553743 C16.0160865,35.9553743 15.0794013,35.0186892 15.0794013,33.8622384 L15.0794013,29.6759665 L12.9862654,29.6759665 L12.9862654,33.8622384 C12.9862654,36.1741002 14.8606755,38.0485103 17.1725373,38.0485103 L38.1038966,38.0485103 C40.4157584,38.0485103 42.2901685,36.1741002 42.2901685,33.8622384 L42.2901685,12.930879 C42.2901685,10.6190172 40.4157584,8.74460716 38.1038966,8.74460716 Z" id="Shape"></path>
                    </g>
                </g>
            </g>
        </g>
    </g>
</svg>