<?xml version="1.0" encoding="UTF-8"?>
<svg width="46px" height="46px" viewBox="0 0 46 46" version="1.1" xmlns="http://www.w3.org/2000/svg" xmlns:xlink="http://www.w3.org/1999/xlink">
    <!-- Generator: Sketch 46.2 (44496) - http://www.bohemiancoding.com/sketch -->
    <title>icon-feature-connect</title>
    <desc>Created with Sketch.</desc>
    <defs></defs>
    <g id="Page-1" stroke="none" stroke-width="1" fill="none" fill-rule="evenodd">
        <g id="HOME" transform="translate(-310.000000, -1330.000000)" fill-rule="nonzero" fill="#0086F3">
            <g id="FEATURES" transform="translate(310.000000, 1093.000000)">
                <g id="Group-6" transform="translate(0.000000, 237.000000)">
                    <g id="icon-feature-connect">
                        <path d="M39.744084,13.2454065 C38.7422244,12.9421474 37.6822614,13.0474811 36.759572,13.5415302 C35.8368826,14.0357492 35.1617275,14.8595608 34.8586382,15.8614204 C34.6566353,16.5287605 34.6401557,17.2212447 34.7947584,17.8822988 L30.5635709,20.1479931 C29.2766307,18.34118 27.2705331,17.0824421 24.9655934,16.7924346 L24.9655934,13.1816966 C26.6336038,12.7318197 27.8648191,11.2065195 27.8648191,9.39834733 C27.8648191,7.23764696 26.1069353,5.47976311 23.9462349,5.47976311 C21.7855345,5.47976311 20.0274808,7.23764696 20.0274808,9.39851722 C20.0274808,11.2066894 21.2588659,12.7319896 22.9267064,13.1818665 L22.9267064,16.7922647 C19.9827989,17.1628015 17.5249555,19.1136839 16.4328827,21.767414 L11.8021066,20.5197192 C11.803126,19.8406565 11.6301748,19.1699185 11.2822338,18.5656088 C10.7601523,17.6583797 9.9159535,17.0087085 8.90542937,16.7363698 C6.81846261,16.1740237 4.66438807,17.4144132 4.10221182,19.5007004 C3.82987319,20.5113944 3.9674866,21.5676198 4.48956807,22.474679 C5.01164955,23.3817382 5.85584834,24.0315793 6.86637246,24.3039179 C7.20564897,24.3953204 7.54985238,24.440512 7.89218696,24.440512 C8.56921094,24.440512 9.23774027,24.2633135 9.84052096,23.9165617 C10.4448307,23.5687905 10.9314045,23.0759306 11.2717004,22.4882704 L15.9026463,23.7361352 C15.8526978,24.0998763 15.8246654,24.4704132 15.8246654,24.8477457 C15.8246654,26.7201375 16.4632936,28.445232 17.5319211,29.8205166 L14.1366076,33.2158301 C12.6391699,32.3554914 10.692195,32.5602126 9.41391941,33.8381485 C7.88607081,35.3659971 7.88607081,37.8520427 9.41391941,39.3800612 C10.1779286,40.1440704 11.1813173,40.5259901 12.1848758,40.5259901 C13.1882644,40.5259901 14.1918229,40.1440704 14.9558321,39.3800612 C16.2339379,38.1017856 16.4386591,36.1548107 15.5781505,34.6575429 L18.973464,31.2622294 C20.3487486,32.3308569 22.0736732,32.9694851 23.9462349,32.9694851 C25.8187966,32.9694851 27.5437212,32.3308569 28.9190057,31.2622294 L32.3143192,34.6575429 C31.4539806,36.1549806 31.6585319,38.1019555 32.9366376,39.3800612 C33.7006469,40.1440704 34.7040355,40.5259901 35.707594,40.5259901 C36.7111525,40.5259901 37.7145411,40.1439006 38.4785504,39.3800612 C40.006399,37.8522126 40.006399,35.366167 38.4785504,33.8381485 C37.2004446,32.5600427 35.2532999,32.3554914 33.756032,33.2158301 L30.3607185,29.8205166 C31.4293461,28.445232 32.0679742,26.7203074 32.0679742,24.8477457 C32.0679742,23.8248194 31.875995,22.8462352 31.5292432,21.9437631 L35.7573727,19.6797677 C36.2218604,20.1750061 36.807312,20.5450332 37.474822,20.7470361 C37.8499459,20.8605247 38.2333946,20.9167593 38.6146347,20.9167593 C39.251394,20.9167593 39.8822071,20.7597781 40.4593339,20.4507426 C41.3821932,19.9566934 42.0571785,19.1328818 42.3602678,18.1310223 C42.6633571,17.1291627 42.5578534,16.0690298 42.0638043,15.1463404 C41.5697552,14.2234811 40.7459436,13.5484958 39.744084,13.2454065 Z M39.4965498,18.6532736 C39.0539783,18.8904444 38.5454882,18.9409026 38.0648607,18.7953043 C37.5842331,18.6500457 37.1890618,18.3260595 36.9520609,17.8833181 C36.7148902,17.4407466 36.6646018,16.9320867 36.8100303,16.4514591 C36.9552889,15.9708316 37.279275,15.5756602 37.7220164,15.3386594 C37.9989422,15.1903427 38.3015218,15.11508 38.6069895,15.11508 C38.7897945,15.11508 38.9737887,15.142093 39.1537055,15.1964588 C39.6343331,15.3417174 40.0295044,15.6657036 40.2665053,16.108445 C40.503676,16.5510165 40.5539644,17.0595065 40.4085359,17.5401341 C40.2632773,18.0211014 39.9392912,18.4162728 39.4965498,18.6532736 L39.4965498,18.6532736 Z M30.0289173,24.8475758 C30.0289173,28.2016053 27.3000945,30.9304282 23.946065,30.9304282 C20.5920355,30.9304282 17.8632127,28.2016053 17.8632127,24.8475758 C17.8632127,21.4935464 20.5920355,18.7647235 23.946065,18.7647235 C27.3000945,18.7647235 30.0289173,21.4935464 30.0289173,24.8475758 Z M22.0661979,9.39851722 C22.0661979,8.36182956 22.9095472,7.51865013 23.946065,7.51865013 C24.9825828,7.51865013 25.8259321,8.36199945 25.8259321,9.39851722 C25.8259321,10.435035 24.9825828,11.2783843 23.946065,11.2783843 C22.9095472,11.2783843 22.0661979,10.435035 22.0661979,9.39851722 Z M7.3967787,22.3353667 C6.91190381,22.2047189 6.50704857,21.892965 6.25662615,21.4578688 C6.00603383,21.0226027 5.94011531,20.5159815 6.0707631,20.0311066 C6.34038344,19.0300965 7.37418292,18.4353008 8.37502313,18.7049211 C8.85989803,18.8355689 9.26475327,19.1471528 9.51534558,19.582419 C9.765768,20.0176851 9.83168652,20.5243063 9.70103873,21.0091812 C9.43141839,22.0101913 8.3979587,22.604987 7.3967787,22.3353667 Z M13.5141193,37.9381785 C12.7813704,38.6710973 11.588551,38.6710973 10.8554623,37.9381785 C10.1225435,37.2052597 10.1225435,36.0126102 10.8554623,35.2795215 C11.2219217,34.9130621 11.7033987,34.7299173 12.1848758,34.7299173 C12.6661829,34.7299173 13.1476599,34.913232 13.5141193,35.2795215 C14.2470381,36.0126102 14.2470381,37.2052597 13.5141193,37.9381785 Z M37.0366677,35.2795215 C37.7695865,36.0124403 37.7695865,37.2050898 37.0366677,37.9381785 C36.3039188,38.6710973 35.1110993,38.6710973 34.3780106,37.9381785 C33.6450918,37.2052597 33.6450918,36.0126102 34.3780106,35.2795215 C34.74447,34.9130621 35.2259471,34.7299173 35.7074241,34.7299173 C36.1887312,34.7299173 36.6702083,34.9130621 37.0366677,35.2795215 Z" id="Shape" transform="translate(23.247750, 23.002877) rotate(-11.000000) translate(-23.247750, -23.002877) "></path>
                    </g>
                </g>
            </g>
        </g>
    </g>
</svg>