<?xml version="1.0" encoding="UTF-8"?>
<svg width="60px" height="60px" viewBox="0 0 60 60" version="1.1" xmlns="http://www.w3.org/2000/svg" xmlns:xlink="http://www.w3.org/1999/xlink">
    <!-- Generator: Sketch 48.2 (47327) - http://www.bohemiancoding.com/sketch -->
    <title>icon-inactive</title>
    <desc>Created with Sketch.</desc>
    <defs></defs>
    <g id="SAN-PHAM" stroke="none" stroke-width="1" fill="none" fill-rule="evenodd" transform="translate(-1068.000000, -177.000000)">
        <g id="Group-Copy-8" transform="translate(1038.000000, 135.000000)" fill="#D0021B" fill-rule="nonzero">
            <g id="icon-inactive" transform="translate(30.000000, 42.000000)">
                <path d="M30,0 C13.4584615,0 0,13.4573077 0,30 C0,46.5426923 13.4584615,60 30,60 C46.5415385,60 60,46.5426923 60,30 C60,13.4573077 46.5415385,0 30,0 Z M30,57.6923077 C14.7311538,57.6923077 2.30769231,45.2688462 2.30769231,30 C2.30769231,14.7311538 14.7311538,2.30769231 30,2.30769231 C45.2688462,2.30769231 57.6923077,14.7311538 57.6923077,30 C57.6923077,45.2688462 45.2688462,57.6923077 30,57.6923077 Z" id="Shape"></path>
                <path d="M41.2003846,18.7996154 C40.7492308,18.3484615 40.02,18.3484615 39.5688462,18.7996154 L30,28.3684615 L20.4311538,18.7996154 C19.98,18.3484615 19.2507692,18.3484615 18.7996154,18.7996154 C18.3484615,19.2507692 18.3484615,19.98 18.7996154,20.4311538 L28.3684615,30 L18.7996154,39.5688462 C18.3484615,40.02 18.3484615,40.7492308 18.7996154,41.2003846 C19.0246154,41.4253846 19.32,41.5384615 19.6153846,41.5384615 C19.9107692,41.5384615 20.2061538,41.4253846 20.4311538,41.2003846 L30,31.6315385 L39.5688462,41.2003846 C39.7938462,41.4253846 40.0892308,41.5384615 40.3846154,41.5384615 C40.68,41.5384615 40.9753846,41.4253846 41.2003846,41.2003846 C41.6515385,40.7492308 41.6515385,40.02 41.2003846,39.5688462 L31.6315385,30 L41.2003846,20.4311538 C41.6515385,19.98 41.6515385,19.2507692 41.2003846,18.7996154 Z" id="Shape"></path>
            </g>
        </g>
    </g>
</svg>