<?xml version="1.0" encoding="UTF-8"?>
<svg width="59px" height="60px" viewBox="0 0 59 60" version="1.1" xmlns="http://www.w3.org/2000/svg" xmlns:xlink="http://www.w3.org/1999/xlink">
    <!-- Generator: Sketch 48.2 (47327) - http://www.bohemiancoding.com/sketch -->
    <title>icon-products</title>
    <desc>Created with Sketch.</desc>
    <defs></defs>
    <g id="SAN-PHAM" stroke="none" stroke-width="1" fill="none" fill-rule="evenodd" transform="translate(-330.000000, -177.000000)">
        <g id="Group" transform="translate(300.000000, 135.000000)" fill="#067EFE" fill-rule="nonzero">
            <g id="icon-products" transform="translate(30.000000, 42.000000)">
                <path d="M58.5461544,15.1984533 C58.4849937,15.0761317 58.4849937,15.0149709 58.3626721,14.8926494 C58.3015113,14.7703278 58.1791898,14.709167 57.9957074,14.6480063 L43.9898893,7.36987371 L29.8005889,0.0917411665 C29.5559458,-0.0305803888 29.2501419,-0.0305803888 29.0054988,0.0917411665 L14.7550376,7.36987371 L0.688058749,14.6480063 C0.504576416,14.709167 0.321094083,14.8926494 0.259933305,15.0761317 C0.198772527,15.1984533 0.198772527,15.259614 0.13761175,15.3819356 L0.13761175,15.4430964 L0.13761175,44.5556265 C0.13761175,44.8614304 0.321094083,45.1672343 0.626897971,45.3507167 L28.944338,59.845821 C29.0054988,59.9069817 29.0666596,59.9069817 29.1278204,59.9069817 L29.1889811,59.9069817 C29.2501419,59.9069817 29.3113027,59.9681425 29.4336243,59.9681425 C29.5559458,59.9681425 29.6171066,59.9681425 29.7394281,59.9069817 C29.7394281,59.9069817 29.8005889,59.9069817 29.8005889,59.845821 C29.8005889,59.845821 29.8617497,59.845821 29.8617497,59.7846602 L58.118029,45.3507167 C58.4238329,45.1672343 58.6073152,44.8614304 58.6073152,44.5556265 L58.6073152,15.4430964 C58.6073152,15.3207748 58.6073152,15.259614 58.5461544,15.1984533 Z M29.3724635,1.86540372 L43.1336385,8.96005393 L55.7939194,15.4430964 L43.5617639,21.7426565 L17.1403079,8.16496382 L29.3724635,1.86540372 Z M28.5162126,57.7051937 L1.9112743,44.0051795 L1.9112743,16.910955 L14.8161984,23.516319 L28.5162126,30.5498085 L28.5162126,57.7051937 Z M29.3724635,29.020789 L15.6112885,21.9261388 L2.95100752,15.4430964 L15.1831631,9.14353626 L41.604619,22.7212289 L29.3724635,29.020789 Z M56.8336527,44.0663403 L30.2287144,57.644033 L30.2287144,30.5498085 L43.9287286,23.516319 L56.8336527,16.910955 L56.8336527,44.0663403 Z" id="Shape"></path>
                <path d="M50.2282887,26.4520363 C50.2894494,26.4520363 50.2282887,26.3908756 50.2282887,26.3297148 C49.9836456,25.6569462 49.4331986,25.2288208 48.8215908,24.9841777 C48.1488222,24.7395346 47.3537321,24.8006953 46.6198028,25.16766 L39.8921172,28.4091812 C39.1581879,28.7761459 38.5465801,29.3877537 38.1796155,30.0605222 C37.8126508,30.7332908 37.75149,31.5283809 37.9961331,32.2011494 C38.2407762,32.873918 38.7912232,33.3632042 39.402831,33.6078473 C40.0755996,33.8524904 40.8706897,33.7913297 41.604619,33.424365 L48.3323046,30.1828438 C49.0662339,29.8158791 49.6778417,29.2042713 50.0448063,28.5315028 C50.3506102,27.8587342 50.4729318,27.1248049 50.2282887,26.4520363 Z M48.4546261,28.0422166 C48.3323046,28.2868597 48.0876615,28.5315028 47.8430183,28.6538243 L41.1153328,31.8953456 C40.8095289,32.0176671 40.503725,32.0788279 40.2590819,31.9565063 C40.0144388,31.8953456 39.8309565,31.7118632 39.7086349,31.4672201 L39.7086349,31.4060593 C39.6474741,31.1614162 39.6474741,30.8556123 39.7697957,30.6109692 C39.8921172,30.3663261 40.1367604,30.121683 40.3814035,29.9993615 L47.109089,26.7578402 C47.4148929,26.6355187 47.7206968,26.5743579 47.9653399,26.6966795 C48.209983,26.7578402 48.3934653,26.9413226 48.5157869,27.2471265 C48.6381085,27.4917696 48.5769477,27.7975735 48.4546261,28.0422166 Z" id="Shape"></path>
            </g>
        </g>
    </g>
</svg>