<?xml version="1.0" encoding="UTF-8"?>
<svg width="45px" height="45px" viewBox="0 0 45 45" version="1.1" xmlns="http://www.w3.org/2000/svg" xmlns:xlink="http://www.w3.org/1999/xlink">
    <!-- Generator: Sketch 46.2 (44496) - http://www.bohemiancoding.com/sketch -->
    <title>icon-feature-mobile</title>
    <desc>Created with Sketch.</desc>
    <defs></defs>
    <g id="Page-1" stroke="none" stroke-width="1" fill="none" fill-rule="evenodd">
        <g id="HOME" transform="translate(-792.000000, -1452.000000)" fill-rule="nonzero" fill="#0086F3">
            <g id="FEATURES" transform="translate(310.000000, 1093.000000)">
                <g id="Group-7-Copy" transform="translate(482.000000, 359.000000)">
                    <g id="icon-feature-mobile">
                        <g id="Group-4" transform="translate(1.500000, 0.500000)">
                            <path d="M19.2927747,3.65384728 L12.8346135,3.65384728 C12.4410106,3.65384728 12.1218593,3.97291323 12.1218593,4.36660151 C12.1218593,4.76028979 12.4410106,5.07935573 12.8346135,5.07935573 L19.2927747,5.07935573 C19.6863776,5.07935573 20.0055289,4.76028979 20.0055289,4.36660151 C20.0055289,3.97291323 19.6863776,3.65384728 19.2927747,3.65384728 Z" id="Shape"></path>
                            <path d="M25.6397708,3.65384728 L24.774186,3.65384728 C24.3805831,3.65384728 24.0614318,3.97291323 24.0614318,4.36660151 C24.0614318,4.76028979 24.3805831,5.07935573 24.774186,5.07935573 L25.6397708,5.07935573 C26.0333737,5.07935573 26.3525251,4.76028979 26.3525251,4.36660151 C26.3525251,3.97291323 26.0334591,3.65384728 25.6397708,3.65384728 Z" id="Shape"></path>
                            <path d="M18.1067578,38.8256386 L14.020545,38.8256386 C13.6269421,38.8256386 13.3077908,39.1447046 13.3077908,39.5383929 C13.3077908,39.9320811 13.6269421,40.2511471 14.020545,40.2511471 L18.1067578,40.2511471 C18.5003607,40.2511471 18.819512,39.9320811 18.819512,39.5383929 C18.819512,39.1447046 18.5003607,38.8256386 18.1067578,38.8256386 Z" id="Shape"></path>
                            <path d="M41.1162197,36.8443428 C41.5098226,36.8443428 41.8289739,36.5252768 41.8289739,36.1315886 L41.8289739,17.5775711 C41.8289739,15.376554 40.0382088,13.5857035 37.8371062,13.5857035 L32.1199601,13.5857035 L32.1199601,2.8121689 C32.1197894,1.26149302 30.858211,0 29.3077059,0 L2.81968236,0 C1.26900648,0 0.00751346094,1.26149302 0.00751346094,2.8121689 L0.00751346094,32.0082353 C0.00751346094,32.4019236 1.43302191,32.4019236 1.43302191,32.0082353 L1.43302191,8.05724767 L30.6943663,8.05724767 L30.6943663,13.5857035 L26.9671774,13.5857035 C24.7659895,13.5857035 22.9753097,15.3764686 22.9753097,17.5775711 L22.9753097,35.1309796 L1.43293653,35.1309796 L1.43293653,31.6511372 C1.43293653,31.257449 0.0074280807,31.257449 0.0074280807,31.6511372 L0.0074280807,40.9025983 C0.0074280807,42.4532742 1.26900648,43.7148526 2.81968236,43.7148526 L26.9051913,43.7148526 L37.8369355,43.7148526 C40.0381234,43.7148526 41.8288031,41.9240875 41.8288031,39.7229849 L41.8288031,35.2978126 C41.8288031,34.9041243 41.5096518,34.5850584 41.1160489,34.5850584 C40.722446,34.5850584 40.4032947,34.9041243 40.4032947,35.2978126 L40.4032947,37.4306963 L24.4008182,37.4306963 L24.4008182,19.5123727 L40.4034654,19.5123727 L40.4034654,36.1315886 C40.4034654,36.5252768 40.7225314,36.8443428 41.1162197,36.8443428 Z M2.81968236,42.2891734 C2.05501695,42.2891734 1.43293653,41.667093 1.43293653,40.9024275 L1.43293653,36.5564027 L22.9752244,36.5564027 L22.9752244,39.7228142 C22.9752244,40.6993933 23.3282717,41.5946905 23.9126994,42.2891734 L2.81968236,42.2891734 L2.81968236,42.2891734 Z M24.4009036,38.856034 L40.4034654,38.856034 L40.4034654,39.7228142 C40.4034654,41.1379062 39.2521129,42.2891734 37.8371062,42.2891734 L26.9672628,42.2891734 C25.5521707,42.2891734 24.4009036,41.1379062 24.4009036,39.7228142 L24.4009036,38.856034 Z M1.43293653,6.63173922 L1.43293653,2.8121689 C1.43293653,2.04750349 2.05501695,1.42542307 2.81968236,1.42542307 L29.3076205,1.42542307 C30.0722859,1.42542307 30.6943663,2.04750349 30.6943663,2.8121689 L30.6943663,6.63173922 L1.43293653,6.63173922 Z M40.4033801,18.0869496 L24.4008182,18.0869496 L24.4008182,17.5775711 C24.4008182,16.162479 25.5521707,15.0112119 26.9671774,15.0112119 L37.8370209,15.0112119 C39.2521129,15.0112119 40.4033801,16.162479 40.4033801,17.5775711 L40.4033801,18.0869496 Z" id="Shape"></path>
                            <path d="M35.1053228,15.9268608 L29.6988754,15.9268608 C29.3052725,15.9268608 28.9861212,16.2459268 28.9861212,16.639615 C28.9861212,17.0333033 29.3052725,17.3523693 29.6988754,17.3523693 L35.1053228,17.3523693 C35.4989257,17.3523693 35.8180771,17.0333033 35.8180771,16.639615 C35.8180771,16.2459268 35.4990111,15.9268608 35.1053228,15.9268608 Z" id="Shape"></path>
                            <path d="M33.3676215,39.9383993 L31.4365767,39.9383993 C31.0429738,39.9383993 30.7238225,40.2574652 30.7238225,40.6511535 C30.7238225,41.0448418 31.0429738,41.3639077 31.4365767,41.3639077 L33.3676215,41.3639077 C33.7612244,41.3639077 34.0803758,41.0448418 34.0803758,40.6511535 C34.0803758,40.2574652 33.7612244,39.9383993 33.3676215,39.9383993 Z" id="Shape"></path>
                        </g>
                    </g>
                </g>
            </g>
        </g>
    </g>
</svg>