<?xml version="1.0" encoding="UTF-8"?>
<svg width="46px" height="45px" viewBox="0 0 46 45" version="1.1" xmlns="http://www.w3.org/2000/svg" xmlns:xlink="http://www.w3.org/1999/xlink">
    <!-- Generator: Sketch 46.2 (44496) - http://www.bohemiancoding.com/sketch -->
    <title>icon-feature-marketing</title>
    <desc>Created with Sketch.</desc>
    <defs></defs>
    <g id="Page-1" stroke="none" stroke-width="1" fill="none" fill-rule="evenodd">
        <g id="HOME" transform="translate(-310.000000, -1208.000000)" fill-rule="nonzero" stroke="#0086F3" fill="#0086F3">
            <g id="FEATURES" transform="translate(310.000000, 1093.000000)">
                <g id="Group" transform="translate(0.000000, 115.000000)">
                    <g id="icon-feature-marketing">
                        <path d="M28.7443141,3.2935274 C27.8321972,14.5139833 18.4095539,23.3650326 6.95802708,23.3650326 C6.59588148,23.3650326 6.30196621,23.0711174 6.30196621,22.7089718 C6.30196621,22.3468261 6.59588148,22.0529109 6.95802708,22.0529109 C17.8188425,22.0529109 26.7373343,13.5843317 27.4575991,2.90307685 L23.0000275,6.44784696 C22.7192335,6.67221978 22.304603,6.62891977 22.077606,6.34287723 C21.851921,6.05945893 21.8991574,5.6474527 22.1825757,5.42176776 L27.7512204,0.992044749 C28.0346387,0.768984052 28.447957,0.810971948 28.673642,1.09701449 L33.103365,6.66565917 C33.3290499,6.94907747 33.2818135,7.3610837 32.9983952,7.58676864 C32.8789922,7.68386565 32.7346588,7.73110203 32.5903254,7.73110203 C32.3987556,7.73110203 32.2058737,7.64712624 32.0759736,7.48311102 L28.7443141,3.2935274 Z M6.95802708,44.1503532 C6.59588148,44.1503532 6.30196621,43.8564379 6.30196621,43.4942923 L6.30196621,33.4014519 C6.30196621,33.0393062 6.59588148,32.745391 6.95802708,32.745391 C7.32017269,32.745391 7.61408796,33.0393062 7.61408796,33.4014519 L7.61408796,43.4942923 C7.61408796,43.8564379 7.32017269,44.1503532 6.95802708,44.1503532 Z M17.4576253,44.1503532 C17.0954797,44.1503532 16.8015644,43.8564379 16.8015644,43.4942923 L16.8015644,27.033725 C16.8015644,26.6715794 17.0954797,26.3776642 17.4576253,26.3776642 C17.8197709,26.3776642 18.1136862,26.6715794 18.1136862,27.033725 L18.1136862,43.4942923 C18.1136862,43.8564379 17.8197709,44.1503532 17.4576253,44.1503532 Z M27.9559114,44.1503532 C27.5937658,44.1503532 27.2998505,43.8564379 27.2998505,43.4942923 L27.2998505,22.4583565 C27.2998505,22.0962109 27.5937658,21.8022956 27.9559114,21.8022956 C28.318057,21.8022956 28.6119722,22.0962109 28.6119722,22.4583565 L28.6119722,43.4942923 C28.6119722,43.8564379 28.318057,44.1503532 27.9559114,44.1503532 Z M38.4541975,44.1503532 C38.0920518,44.1503532 37.7981366,43.8564379 37.7981366,43.4942923 L37.7981366,15.7258598 C37.7981366,15.3637142 38.0920518,15.069799 38.4541975,15.069799 C38.8163431,15.069799 39.1102583,15.3637142 39.1102583,15.7258598 L39.1102583,43.4942923 C39.1102583,43.8564379 38.8163431,44.1503532 38.4541975,44.1503532 Z" id="Combined-Shape"></path>
                    </g>
                </g>
            </g>
        </g>
    </g>
</svg>