<?xml version="1.0" encoding="UTF-8"?>
<svg width="45px" height="45px" viewBox="0 0 45 45" version="1.1" xmlns="http://www.w3.org/2000/svg" xmlns:xlink="http://www.w3.org/1999/xlink">
    <!-- Generator: Sketch 46.2 (44496) - http://www.bohemiancoding.com/sketch -->
    <title>icon-feature-speed</title>
    <desc>Created with Sketch.</desc>
    <defs></defs>
    <g id="Page-1" stroke="none" stroke-width="1" fill="none" fill-rule="evenodd">
        <g id="HOME" transform="translate(-790.000000, -1213.000000)" fill-rule="nonzero" fill="#0086F3">
            <g id="FEATURES" transform="translate(310.000000, 1093.000000)">
                <g id="Group-8" transform="translate(480.000000, 115.000000)">
                    <g id="icon-feature-speed" transform="translate(0.000000, 5.000000)">
                        <g id="Group">
                            <path d="M22.4999583,45 C10.0936694,45 0,34.9072489 0,22.4999583 C0,10.0936694 10.0936694,0 22.4999583,0 C34.9071654,0 44.9999165,10.0936694 44.9999165,22.4999583 C45,34.9072489 34.9072489,45 22.4999583,45 Z M22.4999583,1.87503826 C11.1273529,1.87503826 1.87503826,11.1273529 1.87503826,22.4999583 C1.87503826,33.8725637 11.1273529,43.1249617 22.4999583,43.1249617 C33.8725637,43.1249617 43.1249617,33.8726471 43.1249617,22.4999583 C43.1249617,11.1272694 33.8726471,1.87503826 22.4999583,1.87503826 Z" id="Shape"></path>
                            <path d="M22.1901654,25.8886086 C20.1504399,25.8886086 18.4918045,24.2290676 18.4918045,22.1902477 C18.4918045,20.1505222 20.1504399,18.4918868 22.1901654,18.4918868 C24.2289853,18.4918868 25.8885263,20.1505222 25.8885263,22.1902477 C25.8886086,24.2289853 24.2289853,25.8886086 22.1901654,25.8886086 Z M22.1901654,20.3410261 C21.1707966,20.3410261 20.3409438,21.1707966 20.3409438,22.1902477 C20.3409438,23.2105221 21.1707142,24.0394693 22.1901654,24.0394693 C23.2105221,24.039387 24.039387,23.2105221 24.039387,22.1901654 C24.039387,21.1707966 23.2105221,20.3410261 22.1901654,20.3410261 Z" id="Shape"></path>
                            <path d="M38.4174925,29.8379835 C38.2982835,29.8379835 38.1791568,29.8163316 38.0635702,29.7675942 L34.6487423,28.3518225 C34.1774222,28.1567906 33.9534936,27.6149988 34.1485255,27.1436786 C34.3453686,26.6705473 34.8907004,26.4448076 35.3566694,26.6434618 L38.7714972,28.0592335 C39.2428174,28.2542654 39.4667459,28.7960572 39.271714,29.2673774 C39.1236084,29.6230286 38.7804708,29.8379835 38.4174925,29.8379835 Z M5.96020377,29.8361723 C5.59722549,29.8361723 5.25318234,29.6212997 5.10606459,29.2655662 C4.91103271,28.794246 5.13496125,28.2524542 5.60628142,28.0574223 L9.02110927,26.6434618 C9.49333504,26.4448076 10.0342212,26.6723585 10.2292531,27.1436786 C10.424285,27.6149988 10.2003565,28.1567906 9.72903629,28.3518225 L6.31420844,29.765783 C6.19853947,29.8144381 6.07850719,29.8361723 5.96020377,29.8361723 Z M8.21570748,23.4579137 L4.51734659,23.4579137 C4.00626263,23.4579137 3.59273578,23.0443869 3.59273578,22.5333029 C3.59273578,22.022219 4.00626263,21.6086921 4.51734659,21.6086921 L8.21570748,21.6086921 C8.72679144,21.6086921 9.14031829,22.022219 9.14031829,22.5333029 C9.14023596,23.0443869 8.72670911,23.4579137 8.21570748,23.4579137 Z M39.7556302,23.1165874 L39.7556302,23.1165874 L36.0590805,23.1147762 C35.5479965,23.1147762 35.1344697,22.7012493 35.1344697,22.1892598 C35.1344697,21.6790814 35.5479965,21.2655546 36.0590805,21.2655546 L36.0590805,21.2655546 L39.7556302,21.2673658 C40.2667141,21.2673658 40.680241,21.6817982 40.680241,22.1919766 C40.680241,22.7030605 40.2667141,23.1165874 39.7556302,23.1165874 Z M24.1513513,21.152767 C23.9147444,21.152767 23.6782199,21.0624547 23.4975952,20.8819123 C23.1364281,20.5207452 23.1364281,19.9356496 23.4975952,19.5744825 L32.6496039,10.4233794 C33.010771,10.0622123 33.5958666,10.0622123 33.9570337,10.4233794 C34.3182008,10.7845465 34.3182008,11.3696421 33.9570337,11.7308092 L24.805025,20.88183 C24.6244826,21.0624547 24.3878758,21.152767 24.1513513,21.152767 Z M9.37503162,17.8074229 C9.2567282,17.8074229 9.13669591,17.7848654 9.02020368,17.7370336 L5.60718701,16.3203563 C5.13586684,16.1244188 4.91193831,15.5835326 5.10787577,15.1113068 C5.30471884,14.6390811 5.84379386,14.4169637 6.31692522,14.6119956 L9.72994188,16.0286729 C10.2012621,16.2246104 10.4251906,16.7654966 10.2292531,17.2377223 C10.0811474,17.5934559 9.7371043,17.8074229 9.37503162,17.8074229 Z M35.0026647,17.8074229 C34.6396864,17.8074229 34.2965488,17.5925503 34.1485255,17.2368168 C33.9534936,16.764591 34.1774222,16.2237048 34.6487423,16.0286729 L38.0653814,14.6147124 C38.5385127,14.4214917 39.0784933,14.6445146 39.2735252,15.1149292 C39.4685571,15.587155 39.2446286,16.1280412 38.7733084,16.3230731 L35.3566694,17.7370336 C35.2410004,17.7848654 35.1200625,17.8074229 35.0026647,17.8074229 Z M12.3817662,13.306377 C12.1452417,13.306377 11.9086348,13.2160646 11.7280924,13.0355222 L9.11594959,10.4215682 C8.7547825,10.0604011 8.7547825,9.47439991 9.11594959,9.11413841 C9.47711669,8.75297132 10.0622123,8.75297132 10.4233794,9.11413841 L13.0355222,11.7280924 C13.3966893,12.0892595 13.3966893,12.6752607 13.0355222,13.0355222 C12.8548975,13.2160646 12.6182907,13.306377 12.3817662,13.306377 Z M16.8828121,10.2996424 C16.5207394,10.2996424 16.1757907,10.0847698 16.0286729,9.72903629 L14.6147124,6.31420844 C14.4196805,5.84198267 14.643609,5.30109646 15.1149292,5.10606459 C15.5835326,4.9128439 16.1280412,5.13496125 16.3230731,5.60628142 L17.7370336,9.02110927 C17.9320655,9.49333504 17.7081369,10.0342212 17.2368168,10.2292531 C17.1212301,10.2770849 17.0011155,10.2996424 16.8828121,10.2996424 Z M27.497601,10.2996424 C27.378392,10.2996424 27.2592653,10.2770849 27.1436786,10.2292531 C26.6723585,10.0333157 26.4484299,9.49242945 26.6434618,9.02110927 L28.0592335,5.60809261 C28.2560766,5.13586684 28.7977861,4.9128439 29.2673774,5.10787577 C29.7386975,5.30381324 29.9626261,5.84469945 29.7675942,6.31601962 L28.3518225,9.72903629 C28.2036345,10.0847698 27.8605793,10.2996424 27.497601,10.2996424 Z M22.0845403,9.58990422 C21.5734563,9.58990422 21.1599295,9.17637737 21.1599295,8.66529342 L21.1599295,4.96693252 C21.1599295,4.45584857 21.5734563,4.04232171 22.0845403,4.04232171 C22.5947186,4.04232171 23.0100567,4.45584857 23.0100567,4.96693252 L23.0100567,8.66529342 C23.0100567,9.17637737 22.5947186,9.58990422 22.0845403,9.58990422 Z" id="Shape"></path>
                        </g>
                    </g>
                </g>
            </g>
        </g>
    </g>
</svg>