<?xml version="1.0" encoding="UTF-8"?>
<svg width="46px" height="46px" viewBox="0 0 46 46" version="1.1" xmlns="http://www.w3.org/2000/svg" xmlns:xlink="http://www.w3.org/1999/xlink">
    <!-- Generator: Sketch 46.2 (44496) - http://www.bohemiancoding.com/sketch -->
    <title>icon-feature-cloud</title>
    <desc>Created with Sketch.</desc>
    <defs></defs>
    <g id="Page-1" stroke="none" stroke-width="1" fill="none" fill-rule="evenodd">
        <g id="HOME" transform="translate(-790.000000, -1330.000000)" fill-rule="nonzero" fill="#0086F3">
            <g id="FEATURES" transform="translate(310.000000, 1093.000000)">
                <g id="Group-7" transform="translate(480.000000, 237.000000)">
                    <g id="icon-feature-cloud">
                        <g id="Group-2" transform="translate(0.516338, 4.113461)">
                            <path d="M31.0793368,25.9079469 L30.0168763,25.7131901 C29.518756,25.621788 29.1265874,25.3103177 28.9411718,24.8582287 C28.7550205,24.4068429 28.8212403,23.9238179 29.1214369,23.5328981 L29.7887857,22.6638749 C30.0036323,22.3840438 29.9727297,21.9959363 29.7152081,21.7505568 L28.273823,20.3739003 C28.0243949,20.1355517 27.6322263,20.1003971 27.3408591,20.2888261 L26.4454197,20.8681749 C26.0260274,21.1416781 25.5168704,21.185973 25.0511242,20.9912162 C24.5861138,20.7978655 24.2748805,20.4111643 24.1976241,19.9309516 L24.0261883,18.8657654 C23.9717408,18.523359 23.6627149,18.2702455 23.2999774,18.2702455 L21.2618779,18.2702455 C20.9094412,18.2702455 20.6055657,18.5100003 20.5393459,18.8411572 L20.2759381,20.152426 C20.1824945,20.6178737 19.8653751,20.9891069 19.4069866,21.1705049 C18.9478624,21.3533092 18.4490063,21.3033895 18.0384433,21.0376203 L16.8818035,20.2895292 C16.5897004,20.1011002 16.1990034,20.1362548 15.9488395,20.3746034 L14.5074544,21.7512599 C14.2499328,21.9966394 14.2190302,22.3840438 14.4338768,22.664578 L15.1012256,23.5336012 C15.4014222,23.924521 15.467642,24.407546 15.2814907,24.8589318 C15.0960752,25.3110208 14.7039066,25.6224911 14.2057862,25.7138932 L13.1433257,25.90865 C12.797511,25.9719284 12.5466114,26.2616028 12.5466114,26.5990875 L12.5466114,28.5466557 C12.5466114,28.8932806 12.8114908,29.1885797 13.1705494,29.2413117 L14.28525,29.4051324 C14.787785,29.4789572 15.1917261,29.7763657 15.3948002,30.2207206 C15.5978744,30.6657786 15.5507847,31.1509129 15.2660394,31.5530822 L14.65976,32.4087466 C14.4618363,32.6871715 14.4993609,33.0619202 14.7487889,33.3002688 L16.1894383,34.6776283 C16.4454883,34.9223048 16.8509009,34.9525378 17.1452113,34.7479377 L18.0546304,34.1102321 C18.4629861,33.8233701 18.9706715,33.7600917 19.4415681,33.9379743 C19.9146721,34.1151538 20.2406208,34.4899024 20.3362717,34.9658965 L20.5400817,35.9811631 C20.6063015,36.3109138 20.9094412,36.5506686 21.2626137,36.5506686 L23.3007131,36.5506686 C23.6634507,36.5506686 23.9724766,36.2975551 24.0276598,35.9544456 L24.1483271,35.2056513 C24.2255835,34.7219232 24.5544754,34.3225663 25.0261078,34.1355435 C25.4992118,33.9485207 26.0274989,34.0096898 26.4395335,34.2986611 L27.0789228,34.7472346 C27.3724974,34.9525378 27.7786458,34.9223048 28.0346958,34.6769252 L29.4753452,33.2995657 C29.7247732,33.0612171 29.7622978,32.6871715 29.5643741,32.4080435 L28.9580947,31.5523791 C28.6733494,31.1509129 28.6262597,30.6650755 28.8293339,30.2200175 C29.0316723,29.7756626 29.436349,29.4782541 29.938884,29.4044294 L31.0535846,29.2406086 C31.4119076,29.1878767 31.6767869,28.8925775 31.6767869,28.5459526 L31.6767869,26.5983844 C31.6767869,26.2616028 31.4258873,25.9719284 31.0793368,25.9079469 Z M30.2052349,27.9434017 L29.7144724,28.0158203 C28.7182317,28.1620637 27.8831259,28.7765671 27.4806565,29.6589491 C27.0774512,30.5420341 27.1745737,31.544645 27.7396496,32.3412496 L28.0052648,32.7159983 L27.4401888,33.2559739 L27.3099565,33.1645718 C26.4785296,32.5824106 25.4160691,32.4600724 24.4632392,32.8362272 C23.5111451,33.2130852 22.8504182,34.01883 22.693698,34.9912079 L22.6694173,35.1444822 L21.8703646,35.1444822 L21.7813357,34.6994242 C21.5907698,33.7530608 20.916799,32.9789552 19.9794204,32.6274086 C19.0405702,32.275862 17.9957683,32.4066373 17.1834716,32.9747366 L16.7832095,33.2552708 L16.2181335,32.7152952 L16.4837487,32.3405465 C17.0488246,31.5432389 17.1452113,30.540628 16.7427418,29.658246 C16.3402724,28.775864 15.5044308,28.1613606 14.5089259,28.0151172 L14.0181634,27.9434017 L14.0181634,27.1798425 L14.4839096,27.0947682 C15.474264,26.9126671 16.2843534,26.2686337 16.6522414,25.372893 C17.0201294,24.4764491 16.8840108,23.4780568 16.288768,22.7011388 L15.9951934,22.3186561 L16.5602694,21.7786805 L17.2143742,22.2019426 C18.029614,22.7306687 19.0619077,22.8298049 19.9713268,22.4698212 C20.8814817,22.1091343 21.5363223,21.3420597 21.7224737,20.4174921 L21.8703646,19.6764319 L22.6694173,19.6764319 L22.7452023,20.145395 C22.8982437,21.0973832 23.5413119,21.895394 24.4647107,22.279986 C25.3888454,22.6652811 26.4380619,22.5724728 27.2716961,22.0324972 L27.6638647,21.7786805 L28.2289407,22.3186561 L27.935366,22.7011388 C27.3393875,23.4773537 27.2040047,24.475746 27.5718927,25.372893 C27.9397807,26.2686337 28.7506058,26.9126671 29.7402245,27.0947682 L30.2052349,27.1798425 L30.2052349,27.9434017 Z" id="Shape"></path>
                            <path d="M34.3715447,11.3951377 C33.1269078,5.19537356 27.600542,0.609179984 21.2162691,0.609179984 C13.809475,0.609179984 7.78523764,6.6334173 7.78523764,14.0402114 C7.78523764,14.3428294 7.79774528,14.6526665 7.82460735,14.9803836 C3.78279027,15.4101766 0.622048849,18.8395387 0.622048849,22.9941764 C0.622048849,27.4371616 4.23768251,31.0527953 8.68066771,31.0527953 C9.17492967,31.0527953 9.57609779,30.6516272 9.57609779,30.1573652 C9.57609779,29.6631033 9.17492967,29.2619351 8.68066771,29.2619351 C5.2244436,29.2619351 2.41282506,26.4485538 2.41282506,22.9940925 C2.41282506,19.5396312 5.22435966,16.7262498 8.62157118,16.724487 C8.66094089,16.7316222 8.7702359,16.7423671 8.80960562,16.7423671 C9.03885653,16.7333851 9.32174763,16.6349188 9.49727443,16.4397491 C9.67095445,16.2427327 9.74977782,15.9794845 9.71217093,15.7198459 C9.61907709,15.0751563 9.57609779,14.5415247 9.57609779,14.0400435 C9.57609779,7.62177333 14.7980828,2.39978831 21.216353,2.39978831 C26.9665973,2.39978831 31.9145893,6.69410878 32.7258236,12.3888661 C32.7885297,12.8383859 33.2559296,13.103397 33.7519544,13.1446135 C38.1949396,13.1446135 41.8105732,16.7602471 41.8105732,21.2032323 C41.8105732,25.6462175 38.1949396,29.2618512 33.7519544,29.2618512 C33.2576924,29.2618512 32.8565243,29.6630193 32.8565243,30.1572813 C32.8565243,30.6515432 33.2576924,31.0527113 33.7519544,31.0527113 C39.1834635,31.0527113 43.6013495,26.6348254 43.6013495,21.2033163 C43.6013495,16.0261573 39.5863944,11.7694437 34.3715447,11.3951377 Z" id="Shape"></path>
                            <path d="M22.1116992,23.8949911 C20.0831648,23.8949911 18.4328193,25.4720291 18.4328193,27.4104571 C18.4328193,29.348885 20.0831648,30.925923 22.1116992,30.925923 C24.1402335,30.925923 25.7905791,29.348885 25.7905791,27.4104571 C25.7905791,25.4720291 24.1402335,23.8949911 22.1116992,23.8949911 Z M22.1116992,29.5197366 C20.8947257,29.5197366 19.9043712,28.5733732 19.9043712,27.4104571 C19.9043712,26.2475409 20.8947257,25.3011775 22.1116992,25.3011775 C23.3286726,25.3011775 24.3190271,26.2475409 24.3190271,27.4104571 C24.3190271,28.5733732 23.3286726,29.5197366 22.1116992,29.5197366 Z" id="Shape"></path>
                        </g>
                    </g>
                </g>
            </g>
        </g>
    </g>
</svg>