<?xml version="1.0" encoding="UTF-8"?>
<svg width="129px" height="28px" viewBox="0 0 129 28" version="1.1" xmlns="http://www.w3.org/2000/svg" xmlns:xlink="http://www.w3.org/1999/xlink">
    <!-- Generator: Sketch 46.2 (44496) - http://www.bohemiancoding.com/sketch -->
    <title>logo-header</title>
    <desc>Created with Sketch.</desc>
    <defs></defs>
    <g id="Page-1" stroke="none" stroke-width="1" fill="none" fill-rule="evenodd">
        <g id="Desktop-HD" transform="translate(-380.000000, -119.000000)" fill="#FFFFFF">
            <g id="logo-header" transform="translate(380.000000, 119.000000)">
                <path d="M29.5297805,10.6418997 C32.3592848,11.3201262 34.3949045,13.8119332 34.3949045,16.7701097 C34.3949045,18.9640373 32.7161655,22.5293474 28.9843128,23.5850773 L28.5994414,22.1831249 C31.5755468,21.3406738 32.9617834,18.455012 32.9617834,16.7701097 C32.9617834,14.2576858 31.0349774,12.1810615 28.4797814,11.9400565 L27.4791159,11.8455029 L27.8930275,10.9148965 C28.3307312,9.93025954 28.5196681,8.88661543 28.4545898,7.81311228 C28.2436104,4.3359574 25.1761856,1.48442024 21.6161254,1.45598307 C18.3569647,1.43607705 15.5071672,3.66626206 14.8147486,6.77231188 L14.4977545,8.19630314 L13.5691649,7.08227703 C12.539459,5.84668202 10.9488906,5.19973642 9.3219344,5.35756271 C7.48679775,5.53174037 5.88608274,6.77586653 5.24334756,8.52759616 C4.90850947,9.43900744 4.87387104,10.3824105 5.14013205,11.3315011 L5.32522019,11.9898215 L4.68983255,12.2180298 C2.74203355,12.9168733 1.43312102,14.7460942 1.43312102,16.7701097 C1.43312102,19.2121516 3.91167748,21.8219728 6.46792312,22.1404691 L6.29368136,23.5850773 C3.02402415,23.1784258 0,19.9451197 0,16.7701097 C0,14.3437082 1.42997207,12.136273 3.61709109,11.0926288 C3.43725119,10.0539612 3.53171962,9.02240291 3.90049637,8.01857083 C4.7342677,5.74715193 6.80942414,4.13334257 9.18792919,3.90726707 C10.8617698,3.74872985 12.5048206,4.24780217 13.7773453,5.27082934 C14.999137,2.14913907 18.0935027,0 21.6273217,0 C25.9245854,0.0341246032 29.6287974,3.49919369 29.8849118,7.7235352 C29.9457915,8.7231017 29.8264813,9.70134033 29.5297805,10.6418997 Z M10.3997041,18.8128423 C14.1427691,15.065664 20.238618,15.065664 23.9816831,18.8128423 C24.4012354,19.2365079 24.4012354,19.9193088 23.9816831,20.3388612 C23.7719069,20.5486373 23.4963186,20.655582 23.2207303,20.655582 C22.945142,20.655582 22.6695537,20.5486373 22.4597775,20.3388612 C19.5558171,17.4349008 14.8296833,17.4349008 11.9257229,20.3388612 C11.5020573,20.7584135 10.8192564,20.7584135 10.3997041,20.3388612 C9.98015172,19.9151955 9.98015172,19.2323947 10.3997041,18.8128423 Z M13.311891,21.7250292 C15.4507853,19.5861349 18.9306018,19.5861349 21.0653829,21.7291425 C21.4849353,22.1486948 21.4849353,22.8314957 21.0653829,23.251048 C20.8556067,23.4608242 20.5800184,23.5677689 20.3044301,23.5677689 C20.0288418,23.5677689 19.7532535,23.4608242 19.5434773,23.251048 C18.247801,21.9512584 16.1335862,21.9512584 14.8379098,23.251048 C14.4142442,23.6706004 13.7314433,23.6706004 13.311891,23.251048 C12.8923386,22.8273824 12.8923386,22.1445816 13.311891,21.7250292 Z M17.1906936,27.0352457 C16.3978738,27.0352457 15.7551664,26.3925383 15.7551664,25.5997185 C15.7551664,24.8068988 16.3978738,24.1641914 17.1906936,24.1641914 C17.9835133,24.1641914 18.6262207,24.8068988 18.6262207,25.5997185 C18.6262207,26.3925383 17.9835133,27.0352457 17.1906936,27.0352457 Z M26.9391158,15.8512963 C27.3586681,16.2749619 27.3586681,16.9577628 26.9391158,17.3773152 C26.7293396,17.5870913 26.4537513,17.6940361 26.178163,17.6940361 C25.9025747,17.6940361 25.6269864,17.5870913 25.4172102,17.3773152 C20.8802863,12.8403912 13.5011008,12.8403912 8.96829018,17.3773152 C8.54462457,17.7968675 7.86182369,17.7968675 7.44227134,17.3773152 C7.02271899,16.9536496 7.02271899,16.2708487 7.44227134,15.8512963 C12.8183,10.479381 21.5630872,10.479381 26.9391158,15.8512963 Z" id="Combined-Shape" fill-rule="nonzero"></path>
                <path d="M46.3105745,23.5679195 L48.8582491,23.5679195 L48.8582491,7.01608246 L46.3219481,7.01608246 L42,10.0901589 L42,12.7168884 L46.1172242,9.78045719 L46.3105745,9.78045719 L46.3105745,23.5679195 Z M51.7932451,11.7992537 L51.7932451,11.833665 L54.2044372,11.833665 L54.2044372,11.7992537 C54.2044372,10.0328067 55.4214067,8.83988156 57.2298008,8.83988156 C58.9244594,8.83988156 60.2096702,9.97545458 60.2096702,11.4895519 C60.2096702,12.705418 59.6751135,13.577171 57.4800188,15.8827284 L51.9297277,21.7097091 L51.9297277,23.5679195 L62.9848158,23.5679195 L62.9848158,21.2623622 L55.4782745,21.2623622 L55.4782745,21.0673648 L59.1291832,17.3394736 C61.8815817,14.5292171 62.7232242,13.0954128 62.7232242,11.3404363 C62.7232242,8.61047287 60.4257676,6.61461725 57.3094156,6.61461725 C54.0793281,6.61461725 51.7932451,8.74811808 51.7932451,11.7992537 Z M68.2172684,16.1350779 L70.287254,16.1350779 C72.4368545,16.1350779 73.7675596,17.2018283 73.7675596,18.9109231 C73.7675596,20.5397248 72.3572397,21.6982387 70.3554953,21.6982387 C68.3651245,21.6982387 67.0002988,20.67737 66.8410691,19.0715092 L64.3957564,19.0715092 C64.5436125,22.0308813 66.9093104,23.9693847 70.3554953,23.9693847 C73.7789331,23.9693847 76.3721019,21.8588248 76.3721019,19.0485683 C76.3721019,16.8347744 75.0072762,15.2862658 72.7666874,15.0224458 L72.7666874,14.8274484 C74.5750814,14.4145127 75.7010626,12.9462971 75.7010626,10.9963233 C75.7010626,8.50723895 73.3581118,6.61461725 70.3100011,6.61461725 C67.0230459,6.61461725 64.884819,8.46135722 64.7142157,11.4551406 L67.1367814,11.4551406 C67.2732639,9.82633893 68.4447393,8.82841112 70.2303863,8.82841112 C72.0160332,8.82841112 73.1875086,9.83780936 73.1875086,11.3748476 C73.1875086,12.9348267 71.9705391,14.0130475 70.2076392,14.0130475 L68.2172684,14.0130475 L68.2172684,16.1350779 Z M102.75177,6.54579465 L97.444115,6.54579465 L95.3362175,18.2150501 L95.0480876,18.2150501 L92.4700835,6.54579465 L87.3595695,6.54579465 L84.8118949,18.2150501 L84.523765,18.2150501 L82.4158675,6.54579465 L76.9868942,6.54579465 L81.3846659,23.5679195 L87.0714396,23.5679195 L89.6797732,12.3574815 L89.9679031,12.3574815 L92.6065661,23.5679195 L98.3843282,23.5679195 L102.75177,6.54579465 Z M104.027437,23.5679195 L104.027437,6.54579465 L109.395751,6.54579465 L109.395751,23.5679195 L104.027437,23.5679195 Z M106.828308,5.37294819 C105.34517,5.37294819 104.142849,4.17017277 104.142849,2.68647409 C104.142849,1.20277542 105.34517,0 106.828308,0 C108.311446,0 109.513767,1.20277542 109.513767,2.68647409 C109.513767,4.17017277 108.311446,5.37294819 106.828308,5.37294819 Z M126.314541,5.37294819 C124.831403,5.37294819 123.629082,4.17017277 123.629082,2.68647409 C123.629082,1.20277542 124.831403,0 126.314541,0 C127.797679,0 129,1.20277542 129,2.68647409 C129,4.17017277 127.797679,5.37294819 126.314541,5.37294819 Z M113.284917,23.5679195 L118.638067,23.5679195 L118.638067,10.7975024 L121.943978,10.7975024 L121.943978,6.77520334 L118.501584,6.77520334 L118.501584,5.55169032 C118.501584,4.25170774 119.093008,3.63995123 120.715635,3.63995123 C121.337388,3.63995123 121.82266,3.68583297 122.08046,3.73171471 L122.08046,0.16823304 C121.398047,0.0611756509 120.579152,0 119.532786,0 C115.013696,0 113.284917,1.74350605 113.284917,5.12346076 L113.284917,6.77520334 L110.585595,6.77520334 L110.585595,10.7975024 L113.284917,10.7975024 L113.284917,23.5679195 Z M123.629082,23.5679195 L128.997397,23.5679195 L128.997397,6.54579465 L123.629082,6.54579465 L123.629082,23.5679195 Z" id="123wifi"></path>
            </g>
        </g>
    </g>
</svg>