<?xml version="1.0" encoding="UTF-8"?>
<svg width="162px" height="28px" viewBox="0 0 162 28" version="1.1" xmlns="http://www.w3.org/2000/svg" xmlns:xlink="http://www.w3.org/1999/xlink">
    <!-- Generator: Sketch 48.2 (47327) - http://www.bohemiancoding.com/sketch -->
    <title>123pos-logo</title>
    <desc>Created with Sketch.</desc>
    <defs></defs>
    <g id="DASHBOARD" stroke="none" stroke-width="1" fill="none" fill-rule="evenodd" transform="translate(-44.000000, -26.000000)">
        <g id="Group-2">
            <g id="Group">
                <g id="123pos-logo" transform="translate(44.000000, 26.000000)">
                    <g id="vpos-logo" transform="translate(0.544304, 0.000000)">
                        <g id="Page-1" transform="translate(0.177313, 0.031544)">
                            <path d="M89.9676427,2.07439595 C89.9001717,1.98769519 89.8291664,1.90420557 89.7523779,1.82392709 C89.6784811,1.74043747 89.5981584,1.66337013 89.5146228,1.58630278 C88.3483374,0.529837975 86.4302316,1.42108547e-14 83.7570926,1.42108547e-14 L62.3559158,1.42108547e-14 C61.5526889,1.42108547e-14 61.0836044,0.398181266 60.9454494,1.1945438 L57.2120509,22.3495291 L1.76048053,22.3495291 C1.15002811,22.3495291 0.793395375,22.6417428 0.687369428,23.222959 L0.022297578,27.0088922 C-0.0805154617,27.5933195 0.17330423,27.8855332 0.783756653,27.8855332 L61.4563017,27.8855332 C61.7165472,27.8855332 61.9285991,27.8277327 62.0956703,27.7089205 C62.1984833,27.6382754 62.2852318,27.5419413 62.34949,27.419918 C62.3719803,27.3781732 62.3944707,27.3332172 62.4105352,27.2850501 C62.4201739,27.2625722 62.4298126,27.236883 62.4362385,27.2144051 C62.4587288,27.1501823 62.4747933,27.0827484 62.487645,27.0088922 L63.8370661,19.3599585 L63.8434919,19.3599585 L64.7720222,14.1033235 L64.7655964,14.1033235 L66.1985531,5.97593013 C66.2049789,5.93739646 66.2146177,5.90207392 66.2274693,5.86675139 C66.2531726,5.79610633 66.2820887,5.73830582 66.3238565,5.68692759 C66.343134,5.66123848 66.3656243,5.63876051 66.3913276,5.61949367 C66.4941406,5.53600405 66.6290827,5.49747038 66.8025797,5.49747038 L81.5498251,5.49747038 C82.3948198,5.49747038 83.0663174,5.60986025 83.5611052,5.84106228 C83.8599056,5.97914127 84.0944478,6.15575392 84.2647319,6.37411139 C84.6467466,6.8654157 84.7945404,7.57507747 84.7049003,8.49667443 C84.6885144,8.67007595 84.6663454,8.85311089 84.6310034,9.0425681 L84.3643321,10.5582258 C84.2579848,11.1554977 84.0973395,11.6724911 83.879183,12.1188395 C83.6607053,12.5651878 83.3876082,12.9344689 83.0566787,13.2266825 C82.8092848,13.44504 82.5104845,13.6248638 82.1667033,13.7597316 C81.8772204,13.8753327 81.5559296,13.9620334 81.1996182,14.0166228 C80.8429855,14.0744233 80.4542237,14.1033235 80.0333328,14.1033235 L70.3142876,14.1033235 L69.3857574,19.3599585 L80.338559,19.3599585 C83.2044725,19.3599585 85.4181657,18.7530532 86.9796388,17.5392425 C87.0824518,17.4589641 87.1852648,17.3754744 87.2816521,17.2887737 C88.8524425,15.9111949 89.8776813,13.8656992 90.3564045,11.1522866 L90.8768956,8.21088304 C91.3552975,5.50068152 91.0503926,3.45197468 89.9676427,2.07439595" id="Fill-1" fill="#067EFE"></path>
                            <path d="M8.96504002,3.21113924e-05 C9.85790702,3.21113924e-05 10.4593633,0.183388162 10.7697302,0.548815808 C11.080097,0.914885681 11.1662029,1.49032183 11.0274053,2.27512426 L8.22735647,18.1481066 C8.15795766,18.5405079 7.92694961,18.7370296 7.53401103,18.7370296 L4.77572995,18.7370296 C4.38311265,18.7370296 4.22118212,18.5405079 4.29025963,18.1481066 L6.76484098,4.12217155 C6.83102687,3.74743161 6.67648602,3.55990107 6.30153972,3.55990107 L4.77476608,3.55990107 C4.3641565,3.55990107 4.1938724,3.36402158 4.26327121,2.97097814 L4.6835195,0.588955048 C4.75259702,0.196553833 4.99227991,3.21113924e-05 5.40321078,3.21113924e-05 L8.96504002,3.21113924e-05 Z" id="Fill-3" fill="#000000"></path>
                            <path d="M30.1762055,3.21113924e-05 C31.8006515,3.21113924e-05 32.926133,0.401424516 33.5523286,1.20453044 C34.178203,2.00763636 34.3767607,3.06056892 34.1467165,4.363007 L33.8164296,6.23670674 C33.5581119,7.7000229 32.965973,8.82905945 32.0406557,9.62253196 C31.1143744,10.4169678 29.8754773,10.8138646 28.3220365,10.8138646 L18.1451521,10.8138646 C17.2163005,10.8138646 16.6627166,11.3225091 16.483115,12.3394769 L16.0818229,14.6148901 C16.015637,14.9896301 16.1608604,15.1768395 16.5181357,15.1768395 L31.5959893,15.1768395 C32.0065989,15.1768395 32.1775255,15.3733612 32.108448,15.7657624 L31.6881997,18.1481066 C31.6188009,18.5405079 31.3784754,18.7370296 30.9681872,18.7370296 L13.8816238,18.7370296 C12.9710859,18.7370296 12.3606334,18.5539946 12.0499453,18.1882459 C11.7395784,17.8224971 11.6537938,17.247061 11.7922701,16.4616163 L12.5193511,12.3394769 C12.7805604,10.8584995 13.3739845,9.72111393 14.2999444,8.92667809 C15.2252618,8.13288447 16.4651228,7.73566654 18.0182422,7.73566654 L28.195448,7.73566654 C29.123657,7.73566654 29.6762771,7.23633439 29.8526657,6.23670674 L30.0557214,5.08551333 C30.1373293,4.62182482 30.0955615,4.25190158 29.9300967,3.97478026 C29.764632,3.69862229 29.4227787,3.55990107 28.9051793,3.55990107 L15.3537781,3.55990107 C14.9608395,3.55990107 14.7992302,3.36402158 14.868629,2.97097814 L15.2888773,0.588955048 C15.3579548,0.196553833 15.5889629,3.21113924e-05 15.9819015,3.21113924e-05 L30.1762055,3.21113924e-05 Z" id="Fill-5" fill="#000000"></path>
                            <path d="M52.1367494,3.21113924e-05 C53.9751751,3.21113924e-05 55.2188916,0.366101985 55.8666137,1.09727839 C56.5143359,1.82941814 56.7074316,2.93565561 56.445901,4.41663302 L56.219391,5.70140983 C55.9578603,7.18270836 55.2311006,8.31559829 54.0394333,9.10072183 C55.0527843,9.83286158 55.4209835,10.9837339 55.1440308,12.5536599 L54.8702911,14.1062457 C54.7443452,14.8200819 54.5506068,15.4623098 54.2893975,16.0335715 C54.0278668,16.6048331 53.6741257,17.0906785 53.2284954,17.492392 C52.7828651,17.8937844 52.2369922,18.2017327 51.5924829,18.4159157 C50.9473311,18.6297775 50.1874785,18.7370296 49.3132463,18.7370296 L34.9579757,18.7370296 C34.5653584,18.7370296 34.4034278,18.5405079 34.4725054,18.1481066 L34.8930749,15.7657624 C34.9621525,15.3733612 35.1934818,15.1768395 35.5860991,15.1768395 L48.7362082,15.1768395 C49.4324452,15.1768395 49.9603259,15.0432561 50.3198503,14.7754471 C50.6793746,14.5079592 50.9100614,14.0885844 51.0106254,13.5173227 L51.1854075,12.5270074 C51.2830799,11.9740492 51.1924759,11.5498577 50.9142381,11.2553963 C50.6356791,10.9609348 50.0502873,10.8138646 49.1574203,10.8138646 L36.5165571,10.8138646 C36.1056262,10.8138646 35.9353421,10.617664 36.0044196,10.2249417 L36.3398472,8.32458948 C36.4089247,7.93218826 36.6489289,7.73566654 37.0598598,7.73566654 L49.7004017,7.73566654 C50.5932687,7.73566654 51.224605,7.59758755 51.5947319,7.32078735 C51.9651802,7.04430826 52.1958669,6.64741145 52.2871135,6.12945469 L52.452257,5.19276538 C52.5531422,4.62182482 52.4699279,4.20726674 52.2035779,3.94812781 C51.936264,3.6896311 51.4459743,3.55990107 50.731745,3.55990107 L37.6356128,3.55990107 C37.2429955,3.55990107 37.0810649,3.36402158 37.1501425,2.97097814 L37.570712,0.588955048 C37.6397896,0.196553833 37.8707976,3.21113924e-05 38.2634149,3.21113924e-05 L52.1367494,3.21113924e-05 Z" id="Fill-7" fill="#000000"></path>
                            <path d="M159.899851,0.00112389873 C160.484279,0.00112389873 160.725247,0.293658684 160.622113,0.877443797 L159.954792,4.66145028 C159.851658,5.24587762 159.507555,5.53777018 158.923128,5.53777018 L138.95555,5.53777018 C138.184452,5.53777018 137.605165,5.73686081 137.215761,6.13536319 C136.826999,6.53386557 136.571894,7.07847478 136.450125,7.76854861 L136.211084,9.12268603 C135.94859,10.6104068 136.507636,11.3537856 137.889829,11.3537856 L152.835953,11.3537856 C155.147319,11.3537856 156.782689,11.9449563 157.74399,13.1263344 C158.704007,14.3080337 158.990277,16.0012674 158.601515,18.2047511 L158.039257,21.3918068 C157.697403,23.3303716 156.848874,24.8970864 155.496562,26.0916302 C154.142964,27.2868163 152.256666,27.8844093 149.839595,27.8844093 L127.759531,27.8844093 C127.148115,27.8844093 126.894295,27.5921956 126.99743,27.0080894 L127.665072,23.2240829 C127.767885,22.6399767 128.12516,22.3474419 128.736576,22.3474419 L149.660315,22.3474419 C150.430449,22.3474419 151.0107,22.1483512 151.400105,21.75017 C151.789188,21.3516676 152.044614,20.8077006 152.166704,20.1169846 L152.454581,18.483478 C152.717075,16.9967206 152.156744,16.2530207 150.775837,16.2530207 L135.829712,16.2530207 C133.518025,16.2530207 131.882013,15.6624922 130.921354,14.4804718 C129.960052,13.2990937 129.674745,11.6061811 130.063829,9.40141291 L130.576609,6.49372633 C130.918462,4.5558038 131.76667,2.98844673 133.119946,1.79358182 C134.472259,0.598716911 136.358557,0.00112389873 138.776591,0.00112389873 L159.899851,0.00112389873 Z" id="Fill-9" fill="#067EFE"></path>
                            <path d="M97.9528424,16.9303142 C97.7703492,17.9659066 97.7028782,18.8361253 97.7513931,19.5393648 C97.7995867,20.2432466 97.9872205,20.8010214 98.3133306,21.2123684 C98.6391194,21.6243575 99.1255536,21.9162501 99.7726332,22.0883672 C100.419713,22.2620898 101.261816,22.3475061 102.297336,22.3475061 L114.134972,22.3475061 C115.171456,22.3475061 116.043439,22.2620898 116.751243,22.0883672 C117.458725,21.9162501 118.048936,21.6243575 118.519948,21.2123684 C118.990639,20.8010214 119.374582,20.2432466 119.671776,19.5393648 C119.968327,18.8361253 120.208653,17.9659066 120.391146,16.9303142 L121.445301,10.9553474 C121.628115,9.91943389 121.694944,9.0501785 121.646429,8.34629678 C121.597592,7.64273617 121.410601,7.0852824 121.084812,6.67329324 C120.759024,6.26162518 120.272268,5.96973263 119.625189,5.79697334 C118.97843,5.62421405 118.13697,5.5378344 117.100807,5.5378344 L105.263171,5.5378344 C104.227329,5.5378344 103.354704,5.62421405 102.6469,5.79697334 C101.939097,5.96973263 101.349207,6.26162518 100.878195,6.67329324 C100.407182,7.0852824 100.022597,7.64273617 99.7263673,8.34629678 C99.4291734,9.0501785 99.1898117,9.91943389 99.0069973,10.9553474 L97.9528424,16.9303142 Z M118.316571,0.00118812152 C120.335241,0.00118812152 122.022018,0.193856476 123.375937,0.578550957 C124.729213,0.963887666 125.777264,1.57432524 126.519767,2.41114812 C127.26227,3.24732878 127.715932,4.32980382 127.880112,5.65760989 C128.044291,6.98541597 127.958185,8.6051146 127.62083,10.5170269 L126.411813,17.3683136 C126.074458,19.280547 125.588345,20.9073101 124.953153,22.2482819 C124.318283,23.5892536 123.48132,24.6778298 122.443872,25.5140105 C121.405782,26.3508334 120.143431,26.9551698 118.656818,27.3270197 C117.169563,27.6988696 115.41628,27.8844735 113.396967,27.8844735 L101.081572,27.8844735 C99.0622593,27.8844735 97.3812661,27.6988696 96.0385921,27.3270197 C94.6955967,26.9551698 93.6533296,26.3508334 92.9114692,25.5140105 C92.1680024,24.6778298 91.7091992,23.5892536 91.5344171,22.2482819 C91.358671,20.9073101 91.4399576,19.280547 91.7773129,17.3683136 L92.98633,10.5170269 C93.3236852,8.6051146 93.8146175,6.98541597 94.4613758,5.65760989 C95.1071702,4.32980382 95.948952,3.24732878 96.9870424,2.41114812 C98.0248115,1.57432524 99.2810583,0.963887666 100.757711,0.578550957 C102.23372,0.193856476 103.981542,0.00118812152 106.001176,0.00118812152 L118.316571,0.00118812152 Z" id="Fill-11" fill="#067EFE"></path>
                        </g>
                    </g>
                </g>
            </g>
        </g>
    </g>
</svg>