<?xml version="1.0" encoding="UTF-8"?>
<svg width="87px" height="85px" viewBox="0 0 87 85" version="1.1" xmlns="http://www.w3.org/2000/svg" xmlns:xlink="http://www.w3.org/1999/xlink">
    <!-- Generator: Sketch 46.2 (44496) - http://www.bohemiancoding.com/sketch -->
    <title>logo-login</title>
    <desc>Created with Sketch.</desc>
    <defs></defs>
    <g id="Page-1" stroke="none" stroke-width="1" fill="none" fill-rule="evenodd">
        <g id="Desktop-HD" transform="translate(-90.000000, -100.000000)" fill="#FFFFFF">
            <g id="logo-login" transform="translate(90.000000, 100.000000)">
                <path d="M69.2305823,22.7963744 C75.1341548,24.2114488 79.3813398,29.4104383 79.3813398,35.5824768 C79.3813398,40.1599608 75.8787627,47.5987431 68.0925003,49.8014533 L67.2894918,46.8763728 C73.4989375,45.1186545 76.3912281,39.0979133 76.3912281,35.5824768 C76.3912281,30.3404715 72.3710756,26.007733 67.0398291,25.5048921 L64.952007,25.3076124 L65.8156062,23.3659641 C66.7288459,21.3115845 67.12305,19.1340905 66.9872686,16.8942977 C66.5470739,9.63944536 60.1470962,3.68990282 52.7192676,3.63057055 C45.9192456,3.58903797 39.9733327,8.24217059 38.5286474,14.7227369 L37.8672604,17.6937999 L35.9298199,15.3694585 C33.7814071,12.7914718 30.462792,11.4416628 27.0682561,11.7709569 C23.2393656,12.134367 19.8995802,14.7301534 18.558556,18.3850207 C17.8599386,20.2866197 17.7876679,22.2549675 18.3432037,24.2351817 L18.7293778,25.6087236 L17.4036838,26.084865 C13.3397308,27.5429553 10.6087719,31.3595031 10.6087719,35.5824768 C10.6087719,40.6776347 15.780115,46.1228531 21.1135515,46.7873744 L20.7500076,49.8014533 C13.9280854,48.9530019 7.61866024,42.2069238 7.61866024,35.5824768 C7.61866024,30.5199515 10.6022018,25.9142847 15.1654801,23.7367907 C14.7902561,21.5696799 14.9873582,19.4174021 15.7567864,17.3229732 C17.4963948,12.5838088 21.8260706,9.21670299 26.7886631,8.74501151 C30.2810201,8.41423415 33.7091364,9.45551535 36.3641745,11.5899935 C38.9133615,5.07679443 45.3695498,0.592758756 52.7426278,0.592758756 C61.7085827,0.66395747 69.4371745,7.89359356 69.9715402,16.707401 C70.0985615,18.79293 69.8496289,20.8339598 69.2305823,22.7963744 Z M29.3169508,39.8445024 C37.126607,32.0262642 49.84519,32.0262642 57.6548462,39.8445024 C58.5302143,40.7284525 58.5302143,42.1530712 57.6548462,43.0284392 C57.2171622,43.4661232 56.6421655,43.6892563 56.0671688,43.6892563 C55.4921722,43.6892563 54.9171755,43.4661232 54.4794915,43.0284392 C48.4205714,36.9695191 38.5598077,36.9695191 32.5008876,43.0284392 C31.6169375,43.9038073 30.1923189,43.9038073 29.3169508,43.0284392 C28.4415827,42.1444891 28.4415827,40.7198705 29.3169508,39.8445024 Z M35.393035,45.9205866 C39.8556957,41.4579259 47.1161013,41.4579259 51.57018,45.9291687 C52.445548,46.8045367 52.445548,48.2291553 51.57018,49.1045234 C51.132496,49.5422074 50.5574993,49.7653405 49.9825026,49.7653405 C49.407506,49.7653405 48.8325093,49.5422074 48.3948253,49.1045234 C45.6914827,46.3925988 41.2803143,46.3925988 38.5769717,49.1045234 C37.6930216,49.9798914 36.268403,49.9798914 35.393035,49.1045234 C34.5176669,48.2205733 34.5176669,46.7959547 35.393035,45.9205866 Z M43.4858985,57 C41.8317328,57 40.4907666,55.6590338 40.4907666,54.0048681 C40.4907666,52.3507024 41.8317328,51.0097362 43.4858985,51.0097362 C45.1400642,51.0097362 46.4810304,52.3507024 46.4810304,54.0048681 C46.4810304,55.6590338 45.1400642,57 43.4858985,57 Z M63.8253328,33.6654338 C64.7007009,34.5493839 64.7007009,35.9740025 63.8253328,36.8493706 C63.3876488,37.2870546 62.8126521,37.5101876 62.2376555,37.5101876 C61.6626588,37.5101876 61.0876621,37.2870546 60.6499781,36.8493706 C51.1839882,27.3833807 35.7878088,27.3833807 26.3304009,36.8493706 C25.4464508,37.7247386 24.0218322,37.7247386 23.1464642,36.8493706 C22.2710961,35.9654205 22.2710961,34.5408019 23.1464642,33.6654338 C34.3631902,22.4572898 52.6086068,22.4572898 63.8253328,33.6654338 Z" id="Combined-Shape" fill-rule="nonzero"></path>
                <path d="M4.3105745,84.5679195 L6.85824915,84.5679195 L6.85824915,68.0160825 L4.32194805,68.0160825 L0,71.0901589 L0,73.7168884 L4.1172242,70.7804572 L4.3105745,70.7804572 L4.3105745,84.5679195 Z M9.79324509,72.7992537 L9.79324509,72.833665 L12.2044372,72.833665 L12.2044372,72.7992537 C12.2044372,71.0328067 13.4214067,69.8398816 15.2298008,69.8398816 C16.9244594,69.8398816 18.2096702,70.9754546 18.2096702,72.4895519 C18.2096702,73.705418 17.6751135,74.577171 15.4800188,76.8827284 L9.92972766,82.7097091 L9.92972766,84.5679195 L20.9848158,84.5679195 L20.9848158,82.2623622 L13.4782745,82.2623622 L13.4782745,82.0673648 L17.1291832,78.3394736 C19.8815817,75.5292171 20.7232242,74.0954128 20.7232242,72.3404363 C20.7232242,69.6104729 18.4257676,67.6146173 15.3094156,67.6146173 C12.0793281,67.6146173 9.79324509,69.7481181 9.79324509,72.7992537 Z M26.2172684,77.1350779 L28.287254,77.1350779 C30.4368545,77.1350779 31.7675596,78.2018283 31.7675596,79.9109231 C31.7675596,81.5397248 30.3572397,82.6982387 28.3554953,82.6982387 C26.3651245,82.6982387 25.0002988,81.67737 24.8410691,80.0715092 L22.3957564,80.0715092 C22.5436125,83.0308813 24.9093104,84.9693847 28.3554953,84.9693847 C31.7789331,84.9693847 34.3721019,82.8588248 34.3721019,80.0485683 C34.3721019,77.8347744 33.0072762,76.2862658 30.7666874,76.0224458 L30.7666874,75.8274484 C32.5750814,75.4145127 33.7010626,73.9462971 33.7010626,71.9963233 C33.7010626,69.507239 31.3581118,67.6146173 28.3100011,67.6146173 C25.0230459,67.6146173 22.884819,69.4613572 22.7142157,72.4551406 L25.1367814,72.4551406 C25.2732639,70.8263389 26.4447393,69.8284111 28.2303863,69.8284111 C30.0160332,69.8284111 31.1875086,70.8378094 31.1875086,72.3748476 C31.1875086,73.9348267 29.9705391,75.0130475 28.2076392,75.0130475 L26.2172684,75.0130475 L26.2172684,77.1350779 Z M60.7517705,67.5457946 L55.444115,67.5457946 L53.3362175,79.2150501 L53.0480876,79.2150501 L50.4700835,67.5457946 L45.3595695,67.5457946 L42.8118949,79.2150501 L42.523765,79.2150501 L40.4158675,67.5457946 L34.9868942,67.5457946 L39.3846659,84.5679195 L45.0714396,84.5679195 L47.6797732,73.3574815 L47.9679031,73.3574815 L50.6065661,84.5679195 L56.3843282,84.5679195 L60.7517705,67.5457946 Z M62.0274368,84.5679195 L62.0274368,67.5457946 L67.3957512,67.5457946 L67.3957512,84.5679195 L62.0274368,84.5679195 Z M64.8283082,66.3729482 C63.3451702,66.3729482 62.1428493,65.1701728 62.1428493,63.6864741 C62.1428493,62.2027754 63.3451702,61 64.8283082,61 C66.3114462,61 67.5137671,62.2027754 67.5137671,63.6864741 C67.5137671,65.1701728 66.3114462,66.3729482 64.8283082,66.3729482 Z M84.3145411,66.3729482 C82.8314031,66.3729482 81.6290821,65.1701728 81.6290821,63.6864741 C81.6290821,62.2027754 82.8314031,61 84.3145411,61 C85.7976791,61 87,62.2027754 87,63.6864741 C87,65.1701728 85.7976791,66.3729482 84.3145411,66.3729482 Z M71.2849168,84.5679195 L76.6380665,84.5679195 L76.6380665,71.7975024 L79.9439777,71.7975024 L79.9439777,67.7752033 L76.501584,67.7752033 L76.501584,66.5516903 C76.501584,65.2517077 77.0930084,64.6399512 78.7156345,64.6399512 C79.3373885,64.6399512 79.8226598,64.685833 80.0804602,64.7317147 L80.0804602,61.168233 C79.3980474,61.0611757 78.579152,61 77.5327856,61 C73.0136961,61 71.2849168,62.7435061 71.2849168,66.1234608 L71.2849168,67.7752033 L68.5855949,67.7752033 L68.5855949,71.7975024 L71.2849168,71.7975024 L71.2849168,84.5679195 Z M81.6290821,84.5679195 L86.9973966,84.5679195 L86.9973966,67.5457946 L81.6290821,67.5457946 L81.6290821,84.5679195 Z" id="123wifi"></path>
            </g>
        </g>
    </g>
</svg>